<?xml version="1.0" encoding="utf-8"?>
<!-- Generator: Adobe Illustrator 16.0.0, SVG Export Plug-In . SVG Version: 6.00 Build 0)  -->
<!DOCTYPE svg PUBLIC "-//W3C//DTD SVG 1.1//EN" "http://www.w3.org/Graphics/SVG/1.1/DTD/svg11.dtd">
<svg version="1.1" id="Layer_1" xmlns="http://www.w3.org/2000/svg" xmlns:xlink="http://www.w3.org/1999/xlink" x="0px" y="0px"
	 width="30px" height="30px" viewBox="0 0 30 30" enable-background="new 0 0 30 30" xml:space="preserve">
<g>
	<g>
		<path d="M29.999,14.004c0,0.664,0,1.328,0,1.992c-0.019,0.095-0.043,0.188-0.057,0.283c-0.087,0.607-0.136,1.223-0.265,1.819
			c-0.678,3.13-2.188,5.794-4.551,7.96c-2.142,1.963-4.648,3.207-7.516,3.707c-0.534,0.094-1.074,0.157-1.612,0.234
			c-0.664,0-1.328,0-1.992,0c-0.355-0.045-0.712-0.082-1.067-0.136c-3.977-0.603-7.254-2.452-9.729-5.623
			c-2.775-3.555-3.742-7.601-2.938-12.032C0.871,8.917,2.461,6.141,4.936,3.89c2.129-1.936,4.618-3.161,7.457-3.655
			C12.929,0.141,13.469,0.078,14.007,0c0.664,0,1.328,0,1.992,0c0.355,0.045,0.712,0.084,1.066,0.135
			c2.958,0.432,5.58,1.611,7.819,3.595c2.719,2.407,4.375,5.411,4.941,9.005C29.892,13.157,29.941,13.581,29.999,14.004z
			 M1.641,15.008c0.015,7.389,5.997,13.363,13.372,13.358c7.378-0.005,13.366-6.001,13.354-13.374
			C28.354,7.608,22.365,1.625,14.995,1.634C7.612,1.643,1.625,7.639,1.641,15.008z"/>
		<path d="M16.005,30.075h-1.998c-0.124-0.015-0.237-0.028-0.352-0.042c-0.243-0.029-0.485-0.059-0.727-0.095
			c-4.038-0.612-7.327-2.513-9.777-5.651C0.381,20.738-0.612,16.67,0.2,12.196c0.591-3.259,2.168-6.072,4.686-8.361
			c2.139-1.944,4.66-3.18,7.495-3.673c0.366-0.064,0.74-0.115,1.101-0.164c0.172-0.023,0.344-0.046,0.515-0.071l2.002-0.001
			c0.125,0.016,0.241,0.029,0.357,0.043c0.24,0.029,0.48,0.058,0.72,0.093c3.002,0.438,5.646,1.653,7.858,3.613
			c2.729,2.417,4.4,5.462,4.966,9.05c0.044,0.282,0.08,0.564,0.117,0.847c0.019,0.141,0.036,0.282,0.056,0.423l0.001,2.002
			c-0.008,0.049-0.016,0.082-0.023,0.116c-0.013,0.06-0.025,0.118-0.034,0.179c-0.028,0.194-0.052,0.391-0.076,0.586
			c-0.05,0.408-0.102,0.83-0.189,1.237c-0.683,3.152-2.221,5.843-4.573,7.999c-2.153,1.975-4.694,3.228-7.554,3.727
			c-0.369,0.064-0.748,0.115-1.113,0.165c-0.167,0.022-0.334,0.046-0.501,0.069L16.005,30.075z M15.99,0.074l-1.983,0.001
			c-0.161,0.024-0.333,0.047-0.505,0.071c-0.36,0.049-0.732,0.099-1.096,0.163C9.6,0.797,7.104,2.021,4.986,3.946
			c-2.493,2.267-4.054,5.051-4.639,8.276c-0.804,4.43,0.18,8.459,2.923,11.973c2.425,3.106,5.683,4.988,9.681,5.595
			c0.24,0.036,0.481,0.065,0.722,0.094c0.115,0.014,0.229,0.027,0.343,0.042l1.978-0.001c0.165-0.023,0.331-0.046,0.496-0.068
			c0.364-0.05,0.741-0.101,1.108-0.165c2.83-0.493,5.347-1.734,7.478-3.688c2.329-2.134,3.853-4.8,4.528-7.921
			c0.087-0.4,0.138-0.818,0.188-1.223c0.023-0.197,0.048-0.395,0.076-0.59c0.009-0.063,0.022-0.127,0.036-0.189
			c0.008-0.033,0.015-0.065,0.021-0.099l-0.002-1.978c-0.019-0.131-0.037-0.272-0.055-0.414c-0.037-0.282-0.073-0.563-0.117-0.843
			c-0.56-3.553-2.214-6.568-4.917-8.961c-2.189-1.939-4.808-3.143-7.78-3.577c-0.238-0.035-0.478-0.063-0.716-0.092
			C16.222,0.103,16.105,0.089,15.99,0.074z M15.012,28.441c-7.404,0-13.432-6.027-13.447-13.434c-0.007-3.584,1.387-6.958,3.925-9.5
			c2.539-2.542,5.914-3.944,9.504-3.949h0.017c7.394,0,13.418,6.026,13.43,13.434c0.006,3.586-1.39,6.961-3.928,9.503
			S18.601,28.438,15.012,28.441z M15.012,1.634l-0.017,0.075C11.444,1.713,8.106,3.1,5.597,5.614
			c-2.51,2.514-3.888,5.85-3.881,9.394c0.015,7.324,5.975,13.283,13.287,13.283c3.558-0.002,6.895-1.389,9.405-3.902
			c2.511-2.514,3.89-5.851,3.884-9.396C28.279,7.668,22.322,1.709,15.012,1.709V1.634z"/>
	</g>
	<g>
		<path fill-rule="evenodd" clip-rule="evenodd" d="M24.119,15.024c-0.022,4.966-4.002,9.111-9.131,9.096
			c-5.184-0.016-9.074-4.185-9.102-9.096C11.958,15.024,18.029,15.024,24.119,15.024z M7.723,16.646
			c0.616,3.097,3.559,5.939,7.446,5.842c4.164-0.106,6.678-3.363,7.09-5.842C17.419,16.646,12.582,16.646,7.723,16.646z"/>
		<path d="M15.017,24.195h-0.029c-5.117-0.016-9.148-4.043-9.177-9.17v-0.076h18.384v0.076
			C24.171,20.082,20.055,24.195,15.017,24.195z M5.961,15.1c0.067,5.008,4.019,8.93,9.026,8.945h0.029
			c4.931,0,8.964-4.006,9.027-8.945H5.961z M14.974,22.565c-3.994-0.001-6.754-3.042-7.324-5.903l-0.018-0.09h14.716l-0.015,0.087
			c-0.396,2.386-2.881,5.794-7.162,5.903C15.104,22.564,15.039,22.565,14.974,22.565z M7.815,16.723
			c0.597,2.775,3.286,5.692,7.158,5.692c0.064,0,0.128-0.001,0.193-0.003c2.507-0.063,6.315-1.871,7.003-5.689H7.815z"/>
	</g>
	<g>
		<path fill-rule="evenodd" clip-rule="evenodd" d="M11.605,10.934c0.003,0.908-0.738,1.654-1.628,1.641
			c-0.889-0.014-1.613-0.747-1.611-1.632c0.002-0.886,0.735-1.622,1.617-1.625C10.867,9.315,11.603,10.048,11.605,10.934z"/>
		<path d="M10,12.65H9.976c-0.932-0.015-1.688-0.78-1.686-1.707c0.002-0.935,0.761-1.697,1.692-1.7c0.936,0,1.695,0.758,1.698,1.69
			c0.001,0.46-0.178,0.895-0.504,1.222C10.858,12.474,10.441,12.65,10,12.65z M9.988,9.393c-0.839,0.002-1.546,0.712-1.547,1.55
			c-0.002,0.845,0.688,1.544,1.537,1.557l0.022,0c0.4,0,0.78-0.16,1.07-0.451c0.298-0.299,0.461-0.695,0.46-1.116
			C11.528,10.099,10.821,9.393,9.988,9.393z"/>
	</g>
	<g>
		<path fill-rule="evenodd" clip-rule="evenodd" d="M21.636,10.987c-0.028,0.894-0.79,1.625-1.651,1.585
			c-0.935-0.043-1.609-0.774-1.581-1.712c0.025-0.87,0.8-1.573,1.694-1.538C20.965,9.356,21.663,10.112,21.636,10.987z"/>
		<path d="M20.052,12.649c-0.023,0-0.047,0-0.071-0.002c-0.972-0.044-1.682-0.813-1.652-1.789c0.027-0.911,0.833-1.645,1.772-1.61
			c0.901,0.035,1.639,0.833,1.61,1.742C21.683,11.889,20.923,12.649,20.052,12.649z M20.033,9.396c-0.833,0-1.531,0.658-1.555,1.467
			c-0.027,0.891,0.622,1.594,1.509,1.635c0.021,0.001,0.043,0.001,0.064,0.001c0.792,0,1.483-0.694,1.509-1.515
			c0.026-0.829-0.646-1.555-1.466-1.587C20.074,9.397,20.054,9.396,20.033,9.396z"/>
	</g>
</g>
</svg>
