<?xml version="1.0" encoding="utf-8"?>
<!-- Generator: Adobe Illustrator 16.0.0, SVG Export Plug-In . SVG Version: 6.00 Build 0)  -->
<!DOCTYPE svg PUBLIC "-//W3C//DTD SVG 1.1//EN" "http://www.w3.org/Graphics/SVG/1.1/DTD/svg11.dtd">
<svg version="1.1" id="Capa_1" xmlns="http://www.w3.org/2000/svg" xmlns:xlink="http://www.w3.org/1999/xlink" x="0px" y="0px"
	 width="30px" height="30px" viewBox="0 0 30 30" enable-background="new 0 0 30 30" xml:space="preserve">
<g>
	<g>
		<path fill="#363636" stroke="#363636" stroke-width="0.2835" stroke-miterlimit="10" d="M28.803,9.159
			c-1.582-3.688-4.27-6.368-7.988-7.954c-1.856-0.793-3.805-1.196-5.838-1.196c-2.035,0-3.968,0.4-5.824,1.196
			C5.465,2.787,2.766,5.468,1.182,9.159C0.387,11.011,0,12.948,0,14.983c0,2.033,0.387,3.988,1.182,5.838
			c1.584,3.693,4.283,6.391,7.971,7.973c1.856,0.797,3.789,1.197,5.824,1.197c2.033,0,3.98-0.406,5.838-1.197
			c3.72-1.586,6.406-4.285,7.988-7.973C29.6,18.966,30,17.017,30,14.983C30,12.948,29.6,11.017,28.803,9.159z M26.408,21.61
			c-1.178,2.02-2.791,3.621-4.822,4.805c-2.02,1.18-4.232,1.771-6.609,1.771c-1.789,0-3.494-0.344-5.119-1.049
			c-1.623-0.705-3.025-1.633-4.198-2.805c-1.173-1.174-2.107-2.59-2.806-4.217c-0.695-1.621-1.033-3.346-1.033-5.133
			c0-2.379,0.584-4.58,1.755-6.594C4.75,6.368,6.364,4.765,8.381,3.583c2.018-1.182,4.215-1.771,6.594-1.771
			c2.377,0,4.59,0.594,6.609,1.771c2.031,1.186,3.641,2.788,4.822,4.807c1.181,2.016,1.771,4.215,1.771,6.594
			C28.18,17.36,27.593,19.577,26.408,21.61z"/>
		<path fill="#363636" stroke="#363636" stroke-width="0.2835" stroke-miterlimit="10" d="M15.927,14.851V6.354
			c0-0.508-0.442-0.918-0.952-0.918c-0.476,0-0.901,0.41-0.901,0.918v8.629c0,0.016,0.032,0.082,0.032,0.131
			c-0.032,0.295,0.05,0.541,0.246,0.738l4.905,4.904c0.328,0.328,0.935,0.328,1.263,0c0.377-0.377,0.354-0.926,0-1.279
			L15.927,14.851z"/>
	</g>
</g>
</svg>
