<?xml version="1.0" encoding="utf-8"?>
<!-- Generator: Adobe Illustrator 16.0.0, SVG Export Plug-In . SVG Version: 6.00 Build 0)  -->
<!DOCTYPE svg PUBLIC "-//W3C//DTD SVG 1.1//EN" "http://www.w3.org/Graphics/SVG/1.1/DTD/svg11.dtd">
<svg version="1.1" id="Capa_1" xmlns="http://www.w3.org/2000/svg" xmlns:xlink="http://www.w3.org/1999/xlink" x="0px" y="0px"
	 width="30px" height="30px" viewBox="0 0 30 30" enable-background="new 0 0 30 30" xml:space="preserve">
<g>
	<g>
		<path d="M22.616,9.254H7.384c-0.514,0-0.917,0.403-0.917,0.917s0.403,0.917,0.917,0.917h15.232c0.514,0,0.916-0.403,0.916-0.917
			S23.13,9.254,22.616,9.254z"/>
		<path d="M22.616,14.367H7.384c-0.514,0-0.917,0.402-0.917,0.916c0,0.514,0.403,0.918,0.917,0.918h15.232
			c0.514,0,0.916-0.404,0.916-0.918C23.532,14.769,23.13,14.367,22.616,14.367z"/>
		<path d="M29.858,3.33c0-0.514-0.402-0.916-0.916-0.916H1.06c-0.515,0-0.918,0.402-0.918,0.916v18.795
			c0,0.506,0.412,0.918,0.918,0.918h3.549v3.627c0,0.354,0.197,0.668,0.516,0.828c0.12,0.061,0.248,0.088,0.4,0.088
			c0.198,0,0.403-0.064,0.563-0.18l5.714-4.338H28.94c0.515,0,0.918-0.402,0.918-0.916V3.33L29.858,3.33z M27.999,21.209h-16.51
			c-0.198,0-0.403,0.064-0.563,0.18l-4.483,3.424v-2.688c0-0.514-0.403-0.916-0.918-0.916H1.976V4.246h26.023V21.209z"/>
	</g>
</g>
</svg>
