<?xml version="1.0" encoding="utf-8"?>
<!-- Generator: Adobe Illustrator 16.0.0, SVG Export Plug-In . SVG Version: 6.00 Build 0)  -->
<!DOCTYPE svg PUBLIC "-//W3C//DTD SVG 1.1//EN" "http://www.w3.org/Graphics/SVG/1.1/DTD/svg11.dtd">
<svg version="1.1" id="Capa_1" xmlns="http://www.w3.org/2000/svg" xmlns:xlink="http://www.w3.org/1999/xlink" x="0px" y="0px"
	 width="30px" height="30px" viewBox="0 0 30 30" enable-background="new 0 0 30 30" xml:space="preserve">
<g>
	<g>
		<path d="M1.285,6.642h27.43C29.422,6.642,30,6.063,30,5.356s-0.578-1.285-1.285-1.285H1.285C0.578,4.071,0,4.649,0,5.356
			S0.578,6.642,1.285,6.642z"/>
		<path d="M1.285,16.286h27.43c0.707,0,1.285-0.58,1.285-1.287s-0.578-1.285-1.285-1.285H1.285C0.578,13.714,0,14.292,0,14.999
			S0.578,16.286,1.285,16.286z"/>
		<path d="M1.285,25.929h27.43c0.707,0,1.285-0.58,1.285-1.287s-0.578-1.285-1.285-1.285H1.285C0.578,23.356,0,23.935,0,24.642
			S0.578,25.929,1.285,25.929z"/>
	</g>
</g>
</svg>
