<?xml version="1.0" encoding="utf-8"?>
<!-- Generator: Adobe Illustrator 16.0.0, SVG Export Plug-In . SVG Version: 6.00 Build 0)  -->
<!DOCTYPE svg PUBLIC "-//W3C//DTD SVG 1.1//EN" "http://www.w3.org/Graphics/SVG/1.1/DTD/svg11.dtd">
<svg version="1.1" id="Capa_1" xmlns="http://www.w3.org/2000/svg" xmlns:xlink="http://www.w3.org/1999/xlink" x="0px" y="0px"
	 width="30px" height="30px" viewBox="0 0 30 30" enable-background="new 0 0 30 30" xml:space="preserve">
<g>
	<g>
		<path fill="#231F20" d="M19.671,26.086h-9.342c-0.526,0-0.987-0.461-0.987-0.986c0-3.094,2.565-5.658,5.658-5.658
			c3.092,0,5.658,2.564,5.658,5.658C20.658,25.625,20.197,26.086,19.671,26.086z M11.447,24.111h7.104
			c-0.461-1.578-1.842-2.697-3.553-2.697C13.29,21.414,11.908,22.533,11.447,24.111z"/>
		<g>
			<path fill="#231F20" d="M15,21.02c-5.658,0-10.197-4.605-10.197-10.197V1.875c0-0.525,0.46-0.986,0.987-0.986h18.487
				c0.525,0,0.986,0.461,0.986,0.986v8.883C25.197,16.414,20.658,21.02,15,21.02z M6.776,2.861v7.896
				c0,4.539,3.684,8.223,8.224,8.223c4.539,0,8.224-3.684,8.224-8.223V2.861H6.776z"/>
			<path fill="#231F20" d="M5.395,13.85C2.435,13.85,0,11.414,0,8.453s2.434-5.395,5.395-5.395c0.526,0,0.987,0.461,0.987,0.986
				s-0.46,0.986-0.987,0.986c-1.907,0-3.421,1.514-3.421,3.42c0,1.908,1.514,3.422,3.421,3.422c0.526,0,0.987,0.461,0.987,0.986
				C6.381,13.453,5.987,13.85,5.395,13.85z"/>
			<path fill="#231F20" d="M24.605,13.85c-0.526,0-0.987-0.461-0.987-0.988c0-0.525,0.461-0.986,0.987-0.986
				c1.907,0,3.421-1.514,3.421-3.422c0-1.906-1.579-3.354-3.421-3.354c-0.526,0-0.987-0.461-0.987-0.986s0.461-0.986,0.987-0.986
				C27.566,3.127,30,5.561,30,8.521C30,11.48,27.566,13.85,24.605,13.85z"/>
		</g>
		<path fill="#231F20" d="M21.645,29.111H8.356c-0.526,0-0.987-0.461-0.987-0.984c0-0.525,0.46-0.986,0.987-0.986h13.288
			c0.526,0,0.987,0.461,0.987,0.986C22.632,28.65,22.236,29.111,21.645,29.111z"/>
	</g>
</g>
</svg>
