<svg xmlns="http://www.w3.org/2000/svg" xmlns:xlink="http://www.w3.org/1999/xlink" width="67.063" height="66.125" viewBox="0 0 67.063 66.125">
  <metadata><?xpacket begin="﻿" id="W5M0MpCehiHzreSzNTczkc9d"?>
<x:xmpmeta xmlns:x="adobe:ns:meta/" x:xmptk="Adobe XMP Core 5.6-c138 79.159824, 2016/09/14-01:09:01        ">
   <rdf:RDF xmlns:rdf="http://www.w3.org/1999/02/22-rdf-syntax-ns#">
      <rdf:Description rdf:about=""/>
   </rdf:RDF>
</x:xmpmeta>
                                                                                                    
                                                                                                    
                                                                                                    
                                                                                                    
                                                                                                    
                                                                                                    
                                                                                                    
                                                                                                    
                                                                                                    
                                                                                                    
                                                                                                    
                                                                                                    
                                                                                                    
                                                                                                    
                                                                                                    
                                                                                                    
                                                                                                    
                                                                                                    
                                                                                                    
                                                                                                    
                           
<?xpacket end="w"?></metadata>
<defs>
    <style>
      .cls-1, .cls-2, .cls-3 {
        opacity: 0.6;
      }

      .cls-2 {
        fill: #fdcb0a;
        stroke: #8f8f8f;
        stroke-linejoin: round;
        stroke-width: 1px;
        filter: url(#filter);
      }

      .cls-2, .cls-3 {
        fill-rule: evenodd;
      }

      .cls-3 {
        fill: #fff;
        filter: url(#filter-2);
      }
    </style>
    <filter id="filter" x="123.875" y="194" width="66.063" height="65.125" filterUnits="userSpaceOnUse">
      <feFlood result="flood" flood-color="#fff"/>
      <feComposite result="composite" operator="in" in2="SourceGraphic"/>
      <feBlend result="blend" in2="SourceGraphic"/>
    </filter>
    <filter id="filter-2" x="138.031" y="211.844" width="37.25" height="29.156" filterUnits="userSpaceOnUse">
      <feFlood result="flood" flood-color="#8f8f8f"/>
      <feComposite result="composite" operator="in" in2="SourceGraphic"/>
      <feBlend result="blend" in2="SourceGraphic"/>
    </filter>
  </defs>
  <g id="ic_exercicio_disabled" data-name="ic exercicio disabled" class="cls-1">
    <g transform="translate(-123.375 -193.5)" style="fill: #fdcb0a; filter: url(#filter)">
      <path id="Elipse_2_cópia_2" data-name="Elipse 2 cópia 2" class="cls-2" d="M156.906,194a32.57,32.57,0,1,1-33.019,32.567A32.8,32.8,0,0,1,156.906,194Z" style="stroke: inherit; filter: none; fill: inherit"/>
    </g>
    <use transform="translate(-123.375 -193.5)" xlink:href="#Elipse_2_cópia_2" style="stroke: #8f8f8f; filter: none; fill: none"/>
    <path id="Forma_1" data-name="Forma 1" class="cls-3" d="M175.29,234.016s-0.018-.2-0.026-0.261c-0.441-3.215-3.587-3.742-4.634-3.917a34.773,34.773,0,0,1-3.9-.8,0.387,0.387,0,0,1-.245-0.227l-0.274-.7H166.7a0.828,0.828,0,0,0,.845-0.772,0.8,0.8,0,0,0-.811-0.821h-1.145l-0.5-1.277h0.135a0.828,0.828,0,0,0,.845-0.772,0.8,0.8,0,0,0-.811-0.821h-0.791l-0.331-.844a2.97,2.97,0,0,0-1.192-1.435,3.062,3.062,0,0,1,2.319-3.306,0.8,0.8,0,1,0-.525-1.507,4.726,4.726,0,0,0-3.436,4.319l-3.416-.331a6.929,6.929,0,0,1-4.717-2.465,6.206,6.206,0,0,1-1.415-4.676,1.345,1.345,0,0,0-.347-1.069,1.478,1.478,0,0,0-1.09-.475,1.453,1.453,0,0,0-.961.361l-10.136,7.96a3.418,3.418,0,0,0-.4,4.79l2.075,2.493a3.69,3.69,0,0,0,2.33,1.28,1.259,1.259,0,0,1,1.126,1.323,3.578,3.578,0,0,0,1.446,3.117l7.286,5.6a9.987,9.987,0,0,0,5.695,2.227l0.029,0,9.1-.079a6.509,6.509,0,0,0,6.579-3.98s0.656-1.89.663-1.936A3.6,3.6,0,0,0,175.29,234.016Zm-1.624.038a2.255,2.255,0,0,1-2.319,2.134h-8.6a11.679,11.679,0,0,1-7.99-3.143l-2.535-2.411a4.274,4.274,0,0,1,4.7.535l3.493,2.985a2.336,2.336,0,0,0,1.518.558h4.157a4.329,4.329,0,0,0,4.271-3.3C172.505,231.769,173.5,232.561,173.666,234.054ZM150.1,213.662a7.776,7.776,0,0,0,1.8,5.419,8.55,8.55,0,0,0,5.818,3.047l3.67,0.356a1.462,1.462,0,0,1,1.225.889l0.107,0.274h-1.053a0.828,0.828,0,0,0-.845.772,0.8,0.8,0,0,0,.811.821h1.71l0.5,1.277h-0.7a0.828,0.828,0,0,0-.845.772,0.8,0.8,0,0,0,.811.821h1.356l0.593,1.517a1.436,1.436,0,0,0,.436.592h0a1.485,1.485,0,0,0,.409.23,18.448,18.448,0,0,0,2.847.679,2.715,2.715,0,0,1-2.67,1.991h-4.414l-3.687-3.151a5.928,5.928,0,0,0-6.977-.484l-4.832-4.6a5.936,5.936,0,0,0-.041-8.28Zm-6.837,5.077,1.567-1.164,0.014,0.013a4.37,4.37,0,0,1,.164,6.189l-1.977-1.881a2.061,2.061,0,0,1-.654-1.415A2.091,2.091,0,0,1,143.266,218.739Zm24.714,20.6-0.03,0-9.1.079a8.331,8.331,0,0,1-4.735-1.863l-7.416-5.7a1.87,1.87,0,0,1-.733-1.655,2.86,2.86,0,0,0-2.529-3.036,2.02,2.02,0,0,1-1.288-.709l-2.075-2.493a1.826,1.826,0,0,1,.218-2.589l0.5-.448a3.648,3.648,0,0,0,1.111,2.117l11.719,11.148a13.151,13.151,0,0,0,9.12,3.593h8.6a4.148,4.148,0,0,0,.84-0.087A5.176,5.176,0,0,1,167.98,239.339Z" transform="translate(-123.375 -193.5)"/>
  </g>
</svg>
